name C:/MyDriveSym/Projects/mobilecap/Data\Session20210903_0001\mocap\ForceDataProcessed\DJ1_forces.mot
datacolumns 28
datarows 20
range 1.24450000 1.25400000
endheader 
time	R_ground_force_vx	R_ground_force_vy	R_ground_force_vz	R_ground_force_px	R_ground_force_py	R_ground_force_pz	R_ground_torque_x	R_ground_torque_y	R_ground_torque_z	L_ground_force_vx	L_ground_force_vy	L_ground_force_vz	L_ground_force_px	L_ground_force_py	L_ground_force_pz	L_ground_torque_x	L_ground_torque_y	L_ground_torque_z	3_ground_force_vx	3_ground_force_vy	3_ground_force_vz	3_ground_force_px	3_ground_force_py	3_ground_force_pz	3_ground_torque_x	3_ground_torque_y	3_ground_torque_z	
          1.24450000	       -258.75359700	        460.47113100	       -115.18986200	         -0.17773200	          0.00600000	         -0.44422200	          0.00000000	          1.47107300	          0.00000000	       -166.88515300	        194.78451900	         38.08542200	         -0.18039800	          0.00600000	         -0.77992800	          0.00000000	         -0.26700100	          0.00000000	          0.00000000	          0.00000000	          0.00000000	          0.00000000	          0.00000000	          0.00000000	          0.00000000	          0.00000000	          0.00000000	
          1.24500000	       -266.14818400	        493.36484600	       -118.83413700	         -0.18051600	          0.00600000	         -0.44531700	          0.00000000	          1.52298300	          0.00000000	       -175.80084300	        209.79731800	         40.07444100	         -0.18259600	          0.00600000	         -0.77940000	          0.00000000	         -0.28600100	          0.00000000	          0.00000000	          0.00000000	          0.00000000	          0.00000000	          0.00000000	          0.00000000	          0.00000000	          0.00000000	          0.00000000	
          1.24550000	       -272.64357000	        527.09153300	       -122.14204600	         -0.18325200	          0.00600000	         -0.44639400	          0.00000000	          1.56779500	          0.00000000	       -184.44589800	        225.08440000	         42.00571600	         -0.18474300	          0.00600000	         -0.77885200	          0.00000000	         -0.30613900	          0.00000000	          0.00000000	          0.00000000	          0.00000000	          0.00000000	          0.00000000	          0.00000000	          0.00000000	          0.00000000	          0.00000000	
          1.24600000	       -278.16281600	        561.61421000	       -125.08722900	         -0.18594400	          0.00600000	         -0.44745700	          0.00000000	          1.60341200	          0.00000000	       -192.74685500	        240.59279100	         43.86319800	         -0.18686100	          0.00600000	         -0.77828300	          0.00000000	         -0.32701200	          0.00000000	          0.00000000	          0.00000000	          0.00000000	          0.00000000	          0.00000000	          0.00000000	          0.00000000	          0.00000000	          0.00000000	
          1.24650000	       -282.63848400	        596.89812100	       -127.64643200	         -0.18859700	          0.00600000	         -0.44850600	          0.00000000	          1.62748200	          0.00000000	       -200.63131600	        256.27144800	         45.63219100	         -0.18896800	          0.00600000	         -0.77769100	          0.00000000	         -0.34829000	          0.00000000	          0.00000000	          0.00000000	          0.00000000	          0.00000000	          0.00000000	          0.00000000	          0.00000000	          0.00000000	          0.00000000	
          1.24700000	       -286.01482100	        632.90995200	       -129.79899200	         -0.19121000	          0.00600000	         -0.44954300	          0.00000000	          1.63753600	          0.00000000	       -208.02799700	        272.07343500	         47.29982700	         -0.19108200	          0.00600000	         -0.77707500	          0.00000000	         -0.36971200	          0.00000000	          0.00000000	          0.00000000	          0.00000000	          0.00000000	          0.00000000	          0.00000000	          0.00000000	          0.00000000	          0.00000000	
          1.24750000	       -288.24967300	        669.61650500	       -131.52600400	         -0.19378500	          0.00600000	         -0.45056800	          0.00000000	          1.63117100	          0.00000000	       -214.86701500	        287.95819600	         48.85534600	         -0.19321500	          0.00600000	         -0.77643400	          0.00000000	         -0.39101100	          0.00000000	          0.00000000	          0.00000000	          0.00000000	          0.00000000	          0.00000000	          0.00000000	          0.00000000	          0.00000000	          0.00000000	
          1.24800000	       -289.31589900	        706.98273200	       -132.80948500	         -0.19631800	          0.00600000	         -0.45158100	          0.00000000	          1.60620400	          0.00000000	       -221.08081800	        303.89387900	         50.29021300	         -0.19537900	          0.00600000	         -0.77576600	          0.00000000	         -0.41179400	          0.00000000	          0.00000000	          0.00000000	          0.00000000	          0.00000000	          0.00000000	          0.00000000	          0.00000000	          0.00000000	          0.00000000	
          1.24850000	       -289.20217100	        744.96924300	       -133.63186600	         -0.19880600	          0.00600000	         -0.45258100	          0.00000000	          1.56076900	          0.00000000	       -226.60589200	        319.85949300	         51.59810800	         -0.19758600	          0.00600000	         -0.77507200	          0.00000000	         -0.43140300	          0.00000000	          0.00000000	          0.00000000	          0.00000000	          0.00000000	          0.00000000	          0.00000000	          0.00000000	          0.00000000	          0.00000000	
          1.24900000	       -287.91324700	        783.52955800	       -133.97605600	         -0.20124400	          0.00600000	         -0.45357000	          0.00000000	          1.49331800	          0.00000000	       -231.38496800	        335.84638200	         52.77476100	         -0.19984400	          0.00600000	         -0.77435100	          0.00000000	         -0.44881500	          0.00000000	          0.00000000	          0.00000000	          0.00000000	          0.00000000	          0.00000000	          0.00000000	          0.00000000	          0.00000000	          0.00000000	
          1.24950000	       -285.46981500	        822.60737800	       -133.82614100	         -0.20362900	          0.00600000	         -0.45454500	          0.00000000	          1.40257500	          0.00000000	       -235.36929500	        351.85879500	         53.81764800	         -0.20216200	          0.00600000	         -0.77360500	          0.00000000	         -0.46259000	          0.00000000	          0.00000000	          0.00000000	          0.00000000	          0.00000000	          0.00000000	          0.00000000	          0.00000000	          0.00000000	          0.00000000	
          1.25000000	       -281.90805600	        862.13405500	       -133.16853900	         -0.20595400	          0.00600000	         -0.45550600	          0.00000000	          1.28745800	          0.00000000	       -238.52048000	        367.91361100	         54.72556500	         -0.20454600	          0.00600000	         -0.77283400	          0.00000000	         -0.47092100	          0.00000000	          0.00000000	          0.00000000	          0.00000000	          0.00000000	          0.00000000	          0.00000000	          0.00000000	          0.00000000	          0.00000000	
          1.25050000	       -277.27906800	        902.02640200	       -131.99329300	         -0.20821500	          0.00600000	         -0.45645200	          0.00000000	          1.14704100	          0.00000000	       -240.81148600	        384.03930000	         55.49807100	         -0.20700000	          0.00600000	         -0.77203900	          0.00000000	         -0.47175800	          0.00000000	          0.00000000	          0.00000000	          0.00000000	          0.00000000	          0.00000000	          0.00000000	          0.00000000	          0.00000000	          0.00000000	
          1.25100000	       -271.64835200	        942.18499500	       -130.29516000	         -0.21040700	          0.00600000	         -0.45738100	          0.00000000	          0.98055500	          0.00000000	       -242.22663200	        400.27416900	         56.13482100	         -0.20952400	          0.00600000	         -0.77122300	          0.00000000	         -0.46298600	          0.00000000	          0.00000000	          0.00000000	          0.00000000	          0.00000000	          0.00000000	          0.00000000	          0.00000000	          0.00000000	          0.00000000	
          1.25150000	       -265.09547400	        982.49329100	       -128.07433100	         -0.21252400	          0.00600000	         -0.45829200	          0.00000000	          0.78745800	          0.00000000	       -242.76059500	        416.66395000	         56.63481500	         -0.21211700	          0.00600000	         -0.77038800	          0.00000000	         -0.44260800	          0.00000000	          0.00000000	          0.00000000	          0.00000000	          0.00000000	          0.00000000	          0.00000000	          0.00000000	          0.00000000	          0.00000000	
          1.25200000	       -257.71395100	       1022.81791600	       -125.33687700	         -0.21456200	          0.00600000	         -0.45918300	          0.00000000	          0.56757900	          0.00000000	       -242.41673200	        433.25888300	         56.99561900	         -0.21477000	          0.00600000	         -0.76953600	          0.00000000	         -0.40888800	          0.00000000	          0.00000000	          0.00000000	          0.00000000	          0.00000000	          0.00000000	          0.00000000	          0.00000000	          0.00000000	          0.00000000	
          1.25250000	       -249.61101900	       1063.01025000	       -122.09511800	         -0.21651700	          0.00600000	         -0.46005300	          0.00000000	          0.32132700	          0.00000000	       -241.20517200	        450.11047700	         57.21268300	         -0.21747400	          0.00600000	         -0.76867200	          0.00000000	         -0.36044900	          0.00000000	          0.00000000	          0.00000000	          0.00000000	          0.00000000	          0.00000000	          0.00000000	          0.00000000	          0.00000000	          0.00000000	
          1.25300000	       -240.90670900	       1102.90904800	       -118.36807900	         -0.21838500	          0.00600000	         -0.46090000	          0.00000000	          0.04990400	          0.00000000	       -239.14122800	        467.26815800	         57.27895600	         -0.22021700	          0.00600000	         -0.76779800	          0.00000000	         -0.29631400	          0.00000000	          0.00000000	          0.00000000	          0.00000000	          0.00000000	          0.00000000	          0.00000000	          0.00000000	          0.00000000	          0.00000000	
          1.25350000	       -231.73159700	       1142.34359500	       -114.18186200	         -0.22016300	          0.00600000	         -0.46172500	          0.00000000	         -0.24454700	          0.00000000	       -236.24448500	        484.77602700	         57.18494900	         -0.22298500	          0.00600000	         -0.76691900	          0.00000000	         -0.21589600	          0.00000000	          0.00000000	          0.00000000	          0.00000000	          0.00000000	          0.00000000	          0.00000000	          0.00000000	          0.00000000	          0.00000000	
          1.25400000	       -222.22297500	       1181.13683100	       -109.56950600	         -0.22184800	          0.00600000	         -0.46252500	          0.00000000	         -0.55894600	          0.00000000	       -232.53862300	        502.66999300	         56.91928000	         -0.22576600	          0.00600000	         -0.76604000	          0.00000000	         -0.11895200	          0.00000000	          0.00000000	          0.00000000	          0.00000000	          0.00000000	          0.00000000	          0.00000000	          0.00000000	          0.00000000	          0.00000000	
